<svg viewBox="0 0 160 160" width="160" height="160" xmlns="http://www.w3.org/2000/svg">
<defs><clipPath id="hexagon-clip-67">
<path d="M251.6 17.34l63.53 110.03c5.72 9.9 5.72 22.1 0 32L251.6 269.4c-5.7 9.9-16.27 16-27.7 16H96.83c-11.43 0-22-6.1-27.7-16L5.6 159.37c-5.7-9.9-5.7-22.1 0-32L69.14 17.34c5.72-9.9 16.28-16 27.7-16H223.9c11.43 0 22 6.1 27.7 16z" transform="scale(0.5) translate(0, 16)"/>
</clipPath></defs>
<g clip-path="url(#hexagon-clip-67)">
<g color="#E9B213" fill="#21BCA5">
<rect fill="#795548" x="0" y="0" width="160" height="160"/>
<circle cx="80" cy="80" r="40" fill="#E9B213"/>
<g opacity=".1" fill="#010101"><path d="M119.21,80a39.46,39.46,0,0,1-67.13,28.13c10.36,2.33,36,3,49.82-14.28,10.39-12.47,8.31-33.23,4.16-43.26A39.35,39.35,0,0,1,119.21,80Z"/></g>
<path d="M43.8 62.3c-2.8.7-3.5-1.6.2-5.3a55.4 55.4 0 0139-14c24 1 31 10 31 10s4 5-2.4 3.7c0 0-31-14.1-67.8 5.6z" fill="#743a4b"/><path d="M45.5 60.2A48.2 48.2 0 0168 50c18-4 39.1 1.6 39.1 1.6s5.9 1.1 5.9 3.3-3 .2-3 .2c-24.3-5.3-47.7-5.6-66 8 0-.1-1-.7 1.5-2.9z" opacity=".2"/><ellipse transform="rotate(-23.9 94 37.3)" cx="94" cy="37.3" rx="14.8" ry="16.9" fill="#c1c1c1"/><ellipse transform="rotate(-24.3 94.7 36.2)" cx="94.7" cy="36.2" rx="14.1" ry="16.2" fill="#efefef"/><ellipse transform="rotate(-17.1 95.4 36.7)" cx="95.4" cy="36.7" rx="11.5" ry="13" fill="#fff"/><ellipse transform="rotate(-17.1 96.1 36.5)" cx="96.1" cy="36.5" rx="3.5" ry="4"/><path d="M93.2 34.2a7 7 0 013.6 2.2c1.5 1.7.8 4-1.2 3.9 3.4.7 4.6-2.7 3.3-5.9 0 0-2.5-4.1-5.7-.2z" fill="#010101" opacity=".3"/>
<path d="M52.5 103.1s.9.1 1.9-1.6.5-5.3-2.1-6.5-3.3-3.9-4.8-6.7-7.4-7.8-19-9.7-12.9-6.5-13.7-7.5-2.5 7.9 1.4 15.4S26.7 100 36 97.2s12.4 2 12.4 2 2.3 3.7 4.1 3.9zM119.5 82c3.2-1 6.5-1.6 9.9-1.8 12-1 13.8-5.4 14.7-6.3s1.9 8-2.6 15.1-11.9 12.5-21.2 9c-1.4-.5-2.8-.9-4.3-1.1a35.2 35.2 0 003.5-14.9z"/><g fill="#010101" opacity=".14"><path d="M52.5 103.1s.9.1 1.9-1.6.5-5.3-2.1-6.5-3.3-3.9-4.8-6.7-7.4-7.8-19-9.7-13.5-9.3-13.7-7.5c1.3 16.3 29.6 11.5 37.7 32zM119.2 82.4c3.6-1.2 7.3-1.9 11-2.2 12-1 14.7-8.1 14.7-6.3-1.8 10.5-14.9 11.1-26.4 16 1.2-4.3 1.2-5.2.7-7.5z"/></g>
<path d="M94 85s4.8-2 8.2 0c.8.4.7 1.1 0 2 0 0-3.4 4-4.1 4s-4.8-4-4.8-4c-.6-1-.3-1.7.7-2z"/><path d="M99.3 84.1c1 .2 2 .4 3 .9.8.4.7 1.1 0 2a22.1 22.1 0 01-4.1 4c1.9-3.2 2.6-6.3 1.1-6.9z" fill="#3a3a3a" opacity=".2"/><g fill="none" stroke="#000" stroke-linecap="round" stroke-linejoin="round"><path d="M96 100c1.6.2 2-5.8 2-9M88 95.5s7.5 11 18 0"/></g><g fill="#010101" opacity=".6"><path d="M79 82s0-12 6-12 6 11.6 6 11.6S86 70 79 82zM102 82s0-12 6-12 6 11.6 6 11.6-5-11.6-12 .4z"/></g><path d="M96 86s4-1 6 0h-6z" opacity=".3" fill="#fff"/><g fill="none" stroke="#000" stroke-linecap="round" stroke-linejoin="round" stroke-width=".5"><path d="M93 90c-9.9-3.8-20.4-6.2-31-7M92.6 91.3c-12-2.8-27.7-1.2-27.7-1.2M92.5 93.2c-12.3-1-27.6 5-27.6 5M101 90a84.1 84.1 0 0127-7M101.3 91.3c10.5-2.8 24.1-1.2 24.1-1.2M101.4 93.2c10.7-1 24 5 24 5"/></g>
<path fill="#fd9727" d="M101.62 127.8c.63-6.9-.75-8.88-.75-8.88s-1.62-10.24-6.44-12.83c-3.13-1.78-5.67-1.83-7.93-1.11-2.13.02-4.18.67-6.02 1.87-.11.08-.33.14-.45.22a34.1 34.1 0 01-13.18-2.97 15.6 15.6 0 00-9.95-1.16c-4.7.17-10.04 2.77-11.13 12.84-1.84 16.53 6.55 24.13 6.55 24.13 3.75 4.02 10.66 6.88 16.22 5.33 2.43.03 4.73-.88 6.62-2.37 0 0 4.13-6.07 10.02-7.76l.31-.04c2.71.18 5.48.06 8.11-.48 4.51-.21 7.52-1.7 8.02-6.8z"/><path d="M69.43 143.67a9.66 9.66 0 01-3.8 1.97c.92-.04 1.85-.18 2.71-.43 2.44.02 4.73-.89 6.62-2.38 0 0 4.04-6.08 10.02-7.75-.92.03-1.86.17-2.81.4-7.34.12-12.74 8.2-12.74 8.2zm32.19-15.88c.63-6.9-.75-8.87-.75-8.87s-1.62-10.25-6.44-12.84c-3.14-1.77-5.67-1.82-7.93-1.1-.92.03-1.86.17-2.72.42 1.81.12 3.55.64 5.12 1.52 4.82 2.6 6.44 12.84 6.44 12.84s1.37 1.97.75 8.87c-.4 3.99-2.33 5.68-5.32 6.46.92-.03 1.86-.17 2.82-.4 4.52-.32 7.53-1.81 8.03-6.9zm-34.87-23.7a15.6 15.6 0 00-9.95-1.17c-.92.04-1.86.17-2.82.4 2.45-.06 5 .5 7.14 1.59 3.05 1.66 12.3 3.92 16 2.55 1.1.1 2.25-.1 3.26-.63-.12.08-.33.14-.45.22a34.1 34.1 0 01-13.18-2.96z" opacity=".8"/><circle fill="#33221f" transform="rotate(10.13)" r="5.7" cy="105.12" cx="100.63"/><path fill="#543933" d="M113.02 114.08l-28.18 3.66a5.7 5.7 0 011.08 4.45 5.7 5.7 0 01-.46 1.4l28.34-3.68c.41-.03.7-.48.67-.9l-.56-4.26c-.03-.4-.48-.7-.9-.67z"/><path d="M68.41 115.25l2.59 15.1-3.56.58-.3-1.78c-.93.13-1.92-.55-2.06-1.49l.02-.1c-.3-1.78-1.54-7.9-1.54-7.9.12-.68.74-1.28 1.38-1.47l-.18-2.37z"/><path fill="#fd9727" d="M118.97 110.88l6.87-.9a4.98 4.98 0 015.54 4.24l.12 1.03a4.98 4.98 0 01-4.24 5.54l-6.87.91a4.98 4.98 0 01-5.54-4.24l-.12-1.04a4.98 4.98 0 014.24-5.54z"/><path opacity=".2" d="M118.97 110.88l6.87-.9a4.98 4.98 0 015.54 4.24l.12 1.03a4.98 4.98 0 01-4.24 5.54l-6.87.91a4.98 4.98 0 01-5.54-4.24l-.12-1.04a4.98 4.98 0 014.24-5.54z"/><path fill="#543933" d="M116.62 110.97s-.59-1.83.96-1.96c1.55-.13 1.33 1.66 1.33 1.66zm3.59 10.6s.49 1.81-.96 1.96c-1.45.15-1.33-1.66-1.33-1.66zm4.13-.38s.49 1.81-.96 1.96c-1.45.15-1.33-1.66-1.33-1.66zm3.54-.49s.5 1.82-.96 1.96c-1.45.15-1.33-1.66-1.33-1.66zm-7.11-10.2s-.59-1.84.96-1.97c1.55-.13 1.33 1.66 1.33 1.66zm4.13-.39s-.59-1.83.96-1.96c1.55-.13 1.33 1.66 1.33 1.66z"/><path fill="#fd9727" d="M118.09 110.72l6.86-.9a4.98 4.98 0 015.54 4.24l.12 1.04a4.98 4.98 0 01-4.24 5.54l-6.87.9a4.98 4.98 0 01-5.54-4.24l-.12-1.04a5.07 5.07 0 014.25-5.54z"/><path d="M117.51 113.36l8.53-1.11c.31-.05.57.2.62.51.05.32-.2.58-.52.62l-8.53 1.12c-.3.04-.57-.2-.61-.52-.05-.31.2-.57.51-.62zm1.07 4.26l8.53-1.12c.31-.04.57.2.62.52.04.31-.2.57-.52.62l-8.53 1.11c-.31.05-.57-.2-.62-.51-.06-.22.2-.58.52-.62z"/>
</g>
</g></svg>